
        <svg xmlns="http://www.w3.org/2000/svg" xmlns:xlink="http://www.w3.org/1999/xlink" version="1.1" width="3225.8823529411766" 
        height="3225.8823529411766" viewBox="0 0 3225.8823529411766 3225.8823529411766">
			<rect fill="#e6e6e6" width="3225.8823529411766" height="3225.8823529411766"/>
			<g transform="scale(11.294117647058824) translate(10, 10)">
				<defs id="SvgjsDefs1844"></defs><g id="SvgjsG1845" featureKey="rootContainer" transform="matrix(5.3125,0,0,5.3125,0,0)" fill="#002277"><circle cx="25" cy="25" r="25"></circle></g><g id="SvgjsG1846" featureKey="symbolFeature-0" transform="matrix(0.47219415110996754,0,0,0.47219415110996754,103.02240445550947,79.99999998592752)" fill="#ec2639"><g xmlns="http://www.w3.org/2000/svg"><rect x="66.2" y="28.2" width="10.5" height="10.5"></rect><rect x="50.5" y="44" width="10.5" height="10.5"></rect><rect x="66.2" y="44" width="10.5" height="10.5"></rect><rect x="50.5" y="28.2" width="10.5" height="10.5"></rect><path d="M128.9,60.8l-63-59.7C65.8,1,65.8,1,65.7,0.9c-0.1-0.1-0.2-0.2-0.3-0.3c-0.1-0.1-0.2-0.1-0.3-0.2c-0.1-0.1-0.2-0.1-0.4-0.2   c-0.1,0-0.2-0.1-0.4-0.1c-0.1,0-0.2-0.1-0.4-0.1c-0.1,0-0.3,0-0.4,0c-0.1,0-0.3,0-0.4,0c-0.1,0-0.3,0-0.4,0c-0.1,0-0.3,0-0.4,0   c-0.1,0-0.2,0.1-0.4,0.1c-0.1,0-0.3,0.1-0.4,0.1c-0.1,0-0.2,0.1-0.4,0.2c-0.1,0.1-0.2,0.1-0.3,0.2c-0.1,0.1-0.2,0.2-0.3,0.2   C60.6,1,60.5,1,60.4,1.1L-0.9,59.2c-1.6,1.5-1.7,4.1-0.2,5.7c0.8,0.8,1.8,1.3,2.9,1.3c1,0,2-0.4,2.8-1.1l7.5-7.1V124   c0,1.2,0.5,2.3,1.4,3.1c0.7,0.6,1.6,0.9,2.6,0.9c0.2,0,0.5,0,0.7-0.1c10.1-1.8,19.6-4.1,28.3-6.7c2.1-0.6,3.3-2.9,2.7-5   c-0.6-2.1-2.9-3.3-5-2.7c-7,2.1-14.6,4-22.7,5.6V50.9c0-0.2,0-0.3,0-0.5L63.2,9.5l44.8,42.4v67.2c-12.8-2.6-24.3-5.8-34.2-9.5   c26.5-14.5,25.4-29.7,22-37.9c-2-4.9-6.6-8.2-12.4-8.9c-6.7-0.8-13.8,2.1-19.3,7.6c-5.5-5.5-12.6-8.4-19.3-7.6   c-5.8,0.7-10.4,4-12.4,8.9c-2.6,6.5-2.2,13.2,1.2,19.4c8.7,15.9,37.1,29.4,77.8,36.8c0.2,0,0.5,0.1,0.7,0.1c0.9,0,1.8-0.3,2.6-0.9   c0.9-0.8,1.4-1.9,1.4-3.1V59.5l7.5,7.1c0.8,0.7,1.8,1.1,2.8,1.1c1.1,0,2.1-0.4,2.9-1.3C130.6,64.8,130.5,62.3,128.9,60.8z    M40.4,87.3c-2.3-4.2-2.5-8.3-0.8-12.5c0.9-2.2,3.1-3.6,6-3.9c4.1-0.5,10.3,1.4,15.1,8.1c0,0.1,0.1,0.1,0.2,0.2   c0.1,0.1,0.2,0.2,0.3,0.3c0.1,0.1,0.2,0.2,0.3,0.3c0.1,0,0.1,0.1,0.2,0.1c0,0,0.1,0,0.1,0.1c0.1,0.1,0.2,0.2,0.4,0.2   c0.1,0.1,0.2,0.1,0.3,0.2c0.1,0,0.2,0.1,0.4,0.1c0.1,0,0.3,0.1,0.4,0.1c0.1,0,0.2,0,0.4,0c0.1,0,0.3,0,0.4,0c0.1,0,0.2,0,0.4,0   c0.1,0,0.3,0,0.4,0c0.1,0,0.2-0.1,0.4-0.1c0.1,0,0.3-0.1,0.4-0.1c0.1,0,0.2-0.1,0.3-0.2c0.1-0.1,0.3-0.1,0.4-0.2c0,0,0.1,0,0.1-0.1   c0.1,0,0.1-0.1,0.2-0.1c0.1-0.1,0.2-0.2,0.3-0.3c0.1-0.1,0.2-0.2,0.3-0.3c0-0.1,0.1-0.1,0.2-0.2c4.9-6.7,11-8.6,15.1-8.1   c2.9,0.3,5.1,1.8,6,3.9c5.7,14-12.2,25.1-24.3,30.8C52.3,100,44,93.8,40.4,87.3z"></path></g></g><g id="SvgjsG1847" featureKey="nameFeature-0" transform="matrix(0.6333830968523911,0,0,0.6333830968523911,47.23994032908022,143.39940464989488)" fill="#e6e6e6"><path d="M1.2 40 l0 -4.48 l0.84 -0.56 l0 -17.92 l-0.84 -0.56 l0 -4.48 l14.56 0 l0 5.88 l-4.48 0 l-0.56 -0.84 l-3.64 0 l0 6.44 l6.44 0 l0 5.04 l-6.44 0 l0 6.44 l0.84 0.56 l0 4.48 l-6.72 0 z M18.16 40 l0 -4.48 l0.84 -0.56 l0 -17.92 l-0.84 -0.56 l0 -4.48 l12.8 0 l3.72 3.72 l0 10.2 l-2.16 2.2 l1.72 6.68 l1 0.72 l0 4.48 l-6.88 0 l0 -4.48 l0.72 -0.48 l-1.4 -5.4 l-3.64 0 l0 5.32 l0.84 0.56 l0 4.48 l-6.72 0 z M24.04 24.6 l4.84 0 l0.76 -0.76 l0 -6.04 l-0.76 -0.76 l-4.84 0 l0 7.56 z M37.28 40 l0 -4.48 l0.84 -0.56 l0 -17.92 l-0.84 -0.56 l0 -4.48 l14.56 0 l0 5.88 l-4.48 0 l-0.56 -0.84 l-3.64 0 l0 6.44 l6.44 0 l0 5.04 l-6.44 0 l0 6.44 l3.64 0 l0.56 -0.84 l4.48 0 l0 5.88 l-14.56 0 z M54.24 40 l0 -4.48 l0.84 -0.56 l0 -17.92 l-0.84 -0.56 l0 -4.48 l14.56 0 l0 5.88 l-4.48 0 l-0.56 -0.84 l-3.64 0 l0 6.44 l6.44 0 l0 5.04 l-6.44 0 l0 6.44 l3.64 0 l0.56 -0.84 l4.48 0 l0 5.88 l-14.56 0 z M71.2 40 l0 -4.48 l0.84 -0.56 l0 -17.92 l-0.84 -0.56 l0 -4.48 l13.36 0 l3.72 3.72 l0 20.56 l-3.72 3.72 l-13.36 0 z M77.08 34.96 l5.4 0 l0.76 -0.76 l0 -16.4 l-0.76 -0.76 l-5.4 0 l0 17.92 z M94.4 40 l-3.72 -3.72 l0 -20.56 l3.72 -3.72 l9.08 0 l3.72 3.72 l0 20.56 l-3.72 3.72 l-9.08 0 z M96.48 34.96 l4.92 0 l0.76 -0.76 l0 -16.4 l-0.76 -0.76 l-4.92 0 l-0.76 0.76 l0 16.4 z M109.60000000000001 40 l0 -4.48 l0.84 -0.56 l0 -17.92 l-0.84 -0.56 l0 -4.48 l6.2 0 l4.16 10.6 l4.16 -10.6 l6.2 0 l0 4.48 l-0.84 0.56 l0 17.92 l0.84 0.56 l0 4.48 l-6.72 0 l0 -4.48 l0.84 -0.56 l0 -9.96 l-2.48 6.32 l-4 0 l-2.48 -6.32 l0 9.96 l0.84 0.56 l0 4.48 l-6.72 0 z M139.92 40 l0 -4.48 l0.84 -0.56 l0 -17.92 l-0.84 -0.56 l0 -4.48 l6.2 0 l4.16 10.6 l4.16 -10.6 l6.2 0 l0 4.48 l-0.84 0.56 l0 17.92 l0.84 0.56 l0 4.48 l-6.72 0 l0 -4.48 l0.84 -0.56 l0 -9.96 l-2.48 6.32 l-4 0 l-2.48 -6.32 l0 9.96 l0.84 0.56 l0 4.48 l-6.72 0 z M166.76 40 l-3.72 -3.72 l0 -20.56 l3.72 -3.72 l9.08 0 l3.72 3.72 l0 20.56 l-3.72 3.72 l-9.08 0 z M168.84 34.96 l4.92 0 l0.76 -0.76 l0 -16.4 l-0.76 -0.76 l-4.92 0 l-0.76 0.76 l0 16.4 z M181.95999999999998 40 l0 -4.48 l0.84 -0.56 l0 -17.92 l-0.84 -0.56 l0 -4.48 l12.52 0 l3.72 3.72 l0 8.24 l-2.04 2.04 l2.04 2.04 l0 8.24 l-3.72 3.72 l-12.52 0 z M187.84 34.96 l4.56 0 l0.76 -0.76 l0 -4.08 l-1.6 -1.6 l-3.72 0 l0 6.44 z M187.84 23.48 l3.72 0 l1.6 -1.6 l0 -4.08 l-0.76 -0.76 l-4.56 0 l0 6.44 z M200.59999999999997 40 l0 -4.48 l0.84 -0.56 l0 -17.92 l-0.84 -0.56 l0 -4.48 l6.72 0 l0 4.48 l-0.84 0.56 l0 17.92 l0.84 0.56 l0 4.48 l-6.72 0 z M209.71999999999997 40 l0 -4.48 l0.84 -0.56 l0 -17.92 l-0.84 -0.56 l0 -4.48 l6.72 0 l0 4.48 l-0.84 0.56 l0 17.92 l2.8 0 l0.56 -0.84 l4.48 0 l0 5.88 l-13.72 0 z M225.83999999999997 40 l0 -4.48 l0.84 -0.56 l0 -17.92 l-0.84 -0.56 l0 -4.48 l6.72 0 l0 4.48 l-0.84 0.56 l0 17.92 l0.84 0.56 l0 4.48 l-6.72 0 z M240 40 l0 -4.48 l0.84 -0.56 l0 -17.92 l-0.84 0 l-0.56 0.84 l-4.48 0 l0 -5.88 l16.8 0 l0 5.88 l-4.48 0 l-0.56 -0.84 l-0.84 0 l0 17.92 l0.84 0.56 l0 4.48 l-6.72 0 z M258.12 40 l0 -4.48 l0.84 -0.56 l0 -5.36 l-4.44 -12.36 l-1.16 -0.76 l0 -4.48 l4.6 0 l3.52 9.72 l3.52 -9.72 l4.6 0 l0 4.48 l-1.16 0.76 l-4.44 12.28 l0 5.48 l0.84 0.52 l0 4.48 l-6.72 0 z"></path></g><g id="SvgjsG1848" featureKey="sloganFeature-0" transform="matrix(0.3493934407348818,0,0,0.3493934407348818,64.93012131601812,178.90363985540205)" fill="#ffffff"><path d="M2.58 20 l0 -2.24 l0.42 -0.28 l0 -2.68 l-2.22 -6.18 l-0.58 -0.38 l0 -2.24 l2.3 0 l1.76 4.86 l1.76 -4.86 l2.3 0 l0 2.24 l-0.58 0.38 l-2.22 6.14 l0 2.74 l0.42 0.26 l0 2.24 l-3.36 0 z M12.713999999999999 20 l-1.86 -1.86 l0 -10.28 l1.86 -1.86 l4.54 0 l1.86 1.86 l0 10.28 l-1.86 1.86 l-4.54 0 z M13.754 17.48 l2.46 0 l0.38 -0.38 l0 -8.2 l-0.38 -0.38 l-2.46 0 l-0.38 0.38 l0 8.2 z M24.328 20 l-1.86 -1.86 l0 -9.62 l-0.42 -0.28 l0 -2.24 l3.36 0 l0 2.24 l-0.42 0.28 l0 8.58 l0.38 0.38 l2.32 0 l0.38 -0.38 l0 -8.58 l-0.42 -0.28 l0 -2.24 l3.36 0 l0 2.24 l-0.42 0.28 l0 9.62 l-1.86 1.86 l-4.4 0 z M33.942 20 l0 -2.24 l0.42 -0.28 l0 -8.96 l-0.42 -0.28 l0 -2.24 l6.4 0 l1.86 1.86 l0 5.1 l-1.08 1.1 l0.86 3.34 l0.5 0.36 l0 2.24 l-3.44 0 l0 -2.24 l0.36 -0.24 l-0.7 -2.7 l-1.82 0 l0 2.66 l0.42 0.28 l0 2.24 l-3.36 0 z M36.882 12.3 l2.42 0 l0.38 -0.38 l0 -3.02 l-0.38 -0.38 l-2.42 0 l0 3.78 z M50.57 20 l0 -2.24 l0.42 -0.28 l0 -8.96 l-0.42 -0.28 l0 -2.24 l3.36 0 l0 2.24 l-0.42 0.28 l0 8.96 l1.4 0 l0.28 -0.42 l2.24 0 l0 2.94 l-6.86 0 z M62.224 20 l-1.86 -1.86 l0 -10.28 l1.86 -1.86 l4.54 0 l1.86 1.86 l0 10.28 l-1.86 1.86 l-4.54 0 z M63.263999999999996 17.48 l2.46 0 l0.38 -0.38 l0 -8.2 l-0.38 -0.38 l-2.46 0 l-0.38 0.38 l0 8.2 z M73.41799999999999 20 l-1.86 -1.86 l0 -10.28 l1.86 -1.86 l4.4 0 l1.86 1.86 l0 2.62 l-2.52 0 l0 -1.58 l-0.38 -0.38 l-2.32 0 l-0.38 0.38 l0 8.2 l0.38 0.38 l2.32 0 l0.38 -0.38 l0 -1.58 l2.52 0 l0 2.62 l-1.86 1.86 l-4.4 0 z M82.212 20 l0 -2.24 l0.42 -0.28 l1.82 -8.96 l-0.42 -0.28 l0 -2.24 l5.32 0 l0 2.24 l-0.42 0.28 l1.82 8.96 l0.42 0.28 l0 2.24 l-2.48 0 l-0.62 -3.08 l-2.76 0 l-0.62 3.08 l-2.48 0 z M85.832 14.4 l1.72 0 l-0.86 -4.28 z M93.70599999999999 20 l0 -2.24 l0.42 -0.28 l0 -8.96 l-0.42 -0.28 l0 -2.24 l3.36 0 l0 2.24 l-0.42 0.28 l0 8.96 l1.4 0 l0.28 -0.42 l2.24 0 l0 2.94 l-6.86 0 z M108.83399999999999 20 l0 -2.24 l0.42 -0.28 l0 -8.96 l-0.42 -0.28 l0 -2.24 l7.28 0 l0 2.94 l-2.24 0 l-0.28 -0.42 l-1.82 0 l0 3.22 l3.22 0 l0 2.52 l-3.22 0 l0 3.22 l1.82 0 l0.28 -0.42 l2.24 0 l0 2.94 l-7.28 0 z M119.04799999999999 20 l0 -2.24 l0.58 -0.38 l1.58 -4.38 l-1.58 -4.38 l-0.58 -0.38 l0 -2.24 l2.3 0 l1.76 4.84 l1.76 -4.84 l2.3 0 l0 2.24 l-0.58 0.38 l-1.58 4.38 l1.58 4.38 l0.58 0.38 l0 2.24 l-2.3 0 l-1.76 -4.84 l-1.76 4.84 l-2.3 0 z M130.10199999999998 20 l0 -2.24 l0.42 -0.28 l0 -8.96 l-0.42 -0.28 l0 -2.24 l6.4 0 l1.86 1.86 l0 5.38 l-1.86 1.86 l-3.46 0 l0 2.38 l0.42 0.28 l0 2.24 l-3.36 0 z M133.04199999999997 12.58 l2.42 0 l0.38 -0.38 l0 -3.3 l-0.38 -0.38 l-2.42 0 l0 4.06 z M141.29599999999996 20 l0 -2.24 l0.42 -0.28 l0 -8.96 l-0.42 -0.28 l0 -2.24 l7.28 0 l0 2.94 l-2.24 0 l-0.28 -0.42 l-1.82 0 l0 3.22 l3.22 0 l0 2.52 l-3.22 0 l0 3.22 l1.82 0 l0.28 -0.42 l2.24 0 l0 2.94 l-7.28 0 z M151.50999999999996 20 l0 -2.24 l0.42 -0.28 l0 -8.96 l-0.42 -0.28 l0 -2.24 l6.4 0 l1.86 1.86 l0 5.1 l-1.08 1.1 l0.86 3.34 l0.5 0.36 l0 2.24 l-3.44 0 l0 -2.24 l0.36 -0.24 l-0.7 -2.7 l-1.82 0 l0 2.66 l0.42 0.28 l0 2.24 l-3.36 0 z M154.44999999999996 12.3 l2.42 0 l0.38 -0.38 l0 -3.02 l-0.38 -0.38 l-2.42 0 l0 3.78 z M165.32399999999998 20 l0 -2.24 l0.42 -0.28 l0 -8.96 l-0.42 0 l-0.28 0.42 l-2.24 0 l0 -2.94 l8.4 0 l0 2.94 l-2.24 0 l-0.28 -0.42 l-0.42 0 l0 8.96 l0.42 0.28 l0 2.24 l-3.36 0 z M175.998 20 l-1.86 -1.86 l0 -2.62 l2.52 0 l0 1.58 l0.38 0.38 l2.04 0 l0.38 -0.38 l0 -2.46 l-0.38 -0.38 l-3.08 0 l-1.86 -1.86 l0 -4.54 l1.86 -1.86 l4.12 0 l1.86 1.86 l0 2.62 l-2.52 0 l0 -1.58 l-0.38 -0.38 l-2.04 0 l-0.38 0.38 l0 2.46 l0.38 0.38 l3.08 0 l1.86 1.86 l0 4.54 l-1.86 1.86 l-4.12 0 z M190.24599999999998 20 l0 -2.24 l0.42 -0.28 l0 -8.96 l-0.42 -0.28 l0 -2.24 l3.36 0 l0 2.24 l-0.42 0.28 l0 8.96 l0.42 0.28 l0 2.24 l-3.36 0 z M196.54 20 l0 -2.24 l0.42 -0.28 l0 -8.96 l-0.42 -0.28 l0 -2.24 l3.1 0 l2.92 7.48 l0 -4.96 l-0.42 -0.28 l0 -2.24 l3.36 0 l0 2.24 l-0.42 0.28 l0 11.48 l-2.68 0 l-2.92 -7.48 l0 4.96 l0.42 0.28 l0 2.24 l-3.36 0 z M213.768 20 l0 -2.24 l0.42 -0.28 l0 -8.96 l-0.42 -0.28 l0 -2.24 l3.36 0 l0 2.24 l-0.42 0.28 l0 3.22 l3.08 0 l0 -3.22 l-0.42 -0.28 l0 -2.24 l3.36 0 l0 2.24 l-0.42 0.28 l0 8.96 l0.42 0.28 l0 2.24 l-3.36 0 l0 -2.24 l0.42 -0.28 l0 -3.22 l-3.08 0 l0 3.22 l0.42 0.28 l0 2.24 l-3.36 0 z M227.52200000000002 20 l-1.86 -1.86 l0 -10.28 l1.86 -1.86 l4.54 0 l1.86 1.86 l0 10.28 l-1.86 1.86 l-4.54 0 z M228.562 17.48 l2.46 0 l0.38 -0.38 l0 -8.2 l-0.38 -0.38 l-2.46 0 l-0.38 0.38 l0 8.2 z M236.856 20 l0 -2.24 l0.42 -0.28 l0 -8.96 l-0.42 -0.28 l0 -2.24 l3.1 0 l2.08 5.3 l2.08 -5.3 l3.1 0 l0 2.24 l-0.42 0.28 l0 8.96 l0.42 0.28 l0 2.24 l-3.36 0 l0 -2.24 l0.42 -0.28 l0 -4.98 l-1.24 3.16 l-2 0 l-1.24 -3.16 l0 4.98 l0.42 0.28 l0 2.24 l-3.36 0 z M250.15 20 l0 -2.24 l0.42 -0.28 l0 -8.96 l-0.42 -0.28 l0 -2.24 l7.28 0 l0 2.94 l-2.24 0 l-0.28 -0.42 l-1.82 0 l0 3.22 l3.22 0 l0 2.52 l-3.22 0 l0 3.22 l1.82 0 l0.28 -0.42 l2.24 0 l0 2.94 l-7.28 0 z M265.298 20 l0 -2.24 l0.42 -0.28 l1.82 -8.96 l-0.42 -0.28 l0 -2.24 l5.32 0 l0 2.24 l-0.42 0.28 l1.82 8.96 l0.42 0.28 l0 2.24 l-2.48 0 l-0.62 -3.08 l-2.76 0 l-0.62 3.08 l-2.48 0 z M268.918 14.4 l1.72 0 l-0.86 -4.28 z M278.652 20 l-1.86 -1.86 l0 -10.28 l1.86 -1.86 l4.4 0 l1.86 1.86 l0 2.62 l-2.52 0 l0 -1.58 l-0.38 -0.38 l-2.32 0 l-0.38 0.38 l0 8.2 l0.38 0.38 l2.32 0 l0.38 -0.38 l0 -1.58 l2.52 0 l0 2.62 l-1.86 1.86 l-4.4 0 z M289.70599999999996 20 l-1.86 -1.86 l0 -10.28 l1.86 -1.86 l4.4 0 l1.86 1.86 l0 2.62 l-2.52 0 l0 -1.58 l-0.38 -0.38 l-2.32 0 l-0.38 0.38 l0 8.2 l0.38 0.38 l2.32 0 l0.38 -0.38 l0 -1.58 l2.52 0 l0 2.62 l-1.86 1.86 l-4.4 0 z M298.9 20 l0 -2.24 l0.42 -0.28 l0 -8.96 l-0.42 -0.28 l0 -2.24 l7.28 0 l0 2.94 l-2.24 0 l-0.28 -0.42 l-1.82 0 l0 3.22 l3.22 0 l0 2.52 l-3.22 0 l0 3.22 l1.82 0 l0.28 -0.42 l2.24 0 l0 2.94 l-7.28 0 z M310.97399999999993 20 l-1.86 -1.86 l0 -2.62 l2.52 0 l0 1.58 l0.38 0.38 l2.04 0 l0.38 -0.38 l0 -2.46 l-0.38 -0.38 l-3.08 0 l-1.86 -1.86 l0 -4.54 l1.86 -1.86 l4.12 0 l1.86 1.86 l0 2.62 l-2.52 0 l0 -1.58 l-0.38 -0.38 l-2.04 0 l-0.38 0.38 l0 2.46 l0.38 0.38 l3.08 0 l1.86 1.86 l0 4.54 l-1.86 1.86 l-4.12 0 z M321.74799999999993 20 l-1.86 -1.86 l0 -2.62 l2.52 0 l0 1.58 l0.38 0.38 l2.04 0 l0.38 -0.38 l0 -2.46 l-0.38 -0.38 l-3.08 0 l-1.86 -1.86 l0 -4.54 l1.86 -1.86 l4.12 0 l1.86 1.86 l0 2.62 l-2.52 0 l0 -1.58 l-0.38 -0.38 l-2.04 0 l-0.38 0.38 l0 2.46 l0.38 0.38 l3.08 0 l1.86 1.86 l0 4.54 l-1.86 1.86 l-4.12 0 z M330.662 20 l0 -2.24 l0.42 -0.28 l0 -8.96 l-0.42 -0.28 l0 -2.24 l3.36 0 l0 2.24 l-0.42 0.28 l0 8.96 l0.42 0.28 l0 2.24 l-3.36 0 z M336.95599999999996 20 l0 -2.24 l0.42 -0.28 l0 -8.96 l-0.42 -0.28 l0 -2.24 l6.26 0 l1.86 1.86 l0 4.12 l-1.02 1.02 l1.02 1.02 l0 4.12 l-1.86 1.86 l-6.26 0 z M339.89599999999996 17.48 l2.28 0 l0.38 -0.38 l0 -2.04 l-0.8 -0.8 l-1.86 0 l0 3.22 z M339.89599999999996 11.74 l1.86 0 l0.8 -0.8 l0 -2.04 l-0.38 -0.38 l-2.28 0 l0 3.22 z M348.00999999999993 20 l0 -2.24 l0.42 -0.28 l0 -8.96 l-0.42 -0.28 l0 -2.24 l3.36 0 l0 2.24 l-0.42 0.28 l0 8.96 l0.42 0.28 l0 2.24 l-3.36 0 z M354.3039999999999 20 l0 -2.24 l0.42 -0.28 l0 -8.96 l-0.42 -0.28 l0 -2.24 l3.36 0 l0 2.24 l-0.42 0.28 l0 8.96 l1.4 0 l0.28 -0.42 l2.24 0 l0 2.94 l-6.86 0 z M364.0979999999999 20 l0 -2.24 l0.42 -0.28 l0 -8.96 l-0.42 -0.28 l0 -2.24 l3.36 0 l0 2.24 l-0.42 0.28 l0 8.96 l0.42 0.28 l0 2.24 l-3.36 0 z M372.91199999999986 20 l0 -2.24 l0.42 -0.28 l0 -8.96 l-0.42 0 l-0.28 0.42 l-2.24 0 l0 -2.94 l8.4 0 l0 2.94 l-2.24 0 l-0.28 -0.42 l-0.42 0 l0 8.96 l0.42 0.28 l0 2.24 l-3.36 0 z M383.70599999999985 20 l0 -2.24 l0.42 -0.28 l0 -2.68 l-2.22 -6.18 l-0.58 -0.38 l0 -2.24 l2.3 0 l1.76 4.86 l1.76 -4.86 l2.3 0 l0 2.24 l-0.58 0.38 l-2.22 6.14 l0 2.74 l0.42 0.26 l0 2.24 l-3.36 0 z"></path></g>
			</g>
		</svg>
	